<svg width="70" height="70" viewBox="0 0 70 70" fill="none" xmlns="http://www.w3.org/2000/svg">
<g clip-path="url(#clip0_24_2)">
<path d="M19.7269 31.3964C19.7269 32.267 19.8202 32.9714 19.9835 33.4891C20.1702 34.0068 20.4021 34.5712 20.7288 35.1823C20.8454 35.3704 20.8921 35.5585 20.8921 35.7233C20.8921 35.9581 20.7521 36.1929 20.4502 36.4291L18.9831 37.4164C18.7731 37.5579 18.5646 37.6279 18.3779 37.6279C18.1446 37.6279 17.9127 37.5098 17.6794 37.2983C17.3527 36.9454 17.0742 36.5691 16.8408 36.1929C16.6075 35.7933 16.3756 35.347 16.119 34.806C14.3033 36.9687 12.021 38.0508 9.27354 38.0508C7.31792 38.0508 5.7575 37.4864 4.61708 36.3577C3.47667 35.2289 2.89479 33.7239 2.89479 31.8427C2.89479 29.8448 3.59333 28.2216 5.01375 26.9995C6.43417 25.7775 8.31979 25.165 10.7173 25.165C11.5092 25.165 12.3244 25.235 13.1848 25.3531C14.0452 25.4712 14.9304 25.6593 15.8623 25.8708V24.1543C15.8623 22.3679 15.4904 21.121 14.7685 20.3918C14.0233 19.6627 12.7662 19.3098 10.974 19.3098C10.1587 19.3098 9.32167 19.4031 8.45979 19.616C7.59792 19.8275 6.76083 20.0856 5.94562 20.4152C5.57375 20.58 5.29375 20.6733 5.13042 20.7214C4.96708 20.7681 4.85042 20.7914 4.75854 20.7914C4.43187 20.7914 4.27 20.5566 4.27 20.0623V18.9102C4.27 18.5339 4.31667 18.2525 4.43333 18.0877C4.55 17.9229 4.76 17.7581 5.08521 17.5933C5.90042 17.1704 6.8775 16.8175 8.01937 16.5345C9.15979 16.2283 10.3702 16.0883 11.6506 16.0883C14.4215 16.0883 16.4471 16.7227 17.7508 17.9929C19.0312 19.2631 19.6831 21.191 19.6831 23.7766V31.395L19.7269 31.3964ZM10.274 34.9693C11.0425 34.9693 11.8344 34.8279 12.6715 34.5464C13.51 34.265 14.2552 33.7473 14.8837 33.0414C15.2556 32.5952 15.5356 32.1008 15.6756 31.5364C15.8156 30.972 15.909 30.2895 15.909 29.4904V28.5031C15.2338 28.3383 14.5119 28.1968 13.7667 28.1035C13.0215 28.0102 12.2996 27.962 11.5777 27.962C10.0173 27.962 8.87687 28.2683 8.10833 28.9027C7.33979 29.537 6.96792 30.431 6.96792 31.6064C6.96792 32.7118 7.24792 33.5343 7.82979 34.0987C8.38833 34.6879 9.20354 34.9693 10.274 34.9693ZM28.9698 37.5098C28.5512 37.5098 28.2712 37.4398 28.0846 37.275C27.8979 37.1335 27.736 36.8054 27.596 36.3577L22.1244 18.1825C21.9844 17.7129 21.9144 17.4066 21.9144 17.2418C21.9144 16.8656 22.101 16.6541 22.4729 16.6541H24.7552C25.1971 16.6541 25.5004 16.7241 25.6637 16.8889C25.8504 17.0304 25.989 17.3585 26.129 17.8062L30.0402 33.3725L33.6715 17.8062C33.7881 17.3366 33.9281 17.0304 34.1133 16.8889C34.3 16.7475 34.6252 16.6541 35.0452 16.6541H36.9075C37.3494 16.6541 37.6527 16.7241 37.8394 16.8889C38.026 17.0304 38.1879 17.3585 38.2812 17.8062L41.9592 33.5606L45.9871 17.8062C46.1271 17.3366 46.2904 17.0304 46.4523 16.8889C46.639 16.7475 46.9408 16.6541 47.3608 16.6541H49.5265C49.8983 16.6541 50.1083 16.8423 50.1083 17.2418C50.1083 17.36 50.085 17.4766 50.0617 17.6181C50.0383 17.7595 49.9917 17.9477 49.8983 18.2058L44.2881 36.381C44.1481 36.8506 43.9848 37.1568 43.7996 37.2983C43.6144 37.4398 43.311 37.5331 42.9144 37.5331H40.9121C40.4702 37.5331 40.1669 37.4631 39.9802 37.2983C39.7935 37.1335 39.6317 36.8287 39.5383 36.3577L35.9304 21.191L32.3458 36.3343C32.2292 36.8039 32.0892 37.1102 31.904 37.275C31.7173 37.4398 31.3921 37.5098 30.9721 37.5098H28.9698ZM58.886 38.1441C57.6756 38.1441 56.4652 38.0027 55.3015 37.7212C54.1377 37.4398 53.2292 37.1335 52.624 36.7806C52.2521 36.5691 51.9954 36.3343 51.9021 36.1229C51.8088 35.9114 51.7621 35.6766 51.7621 35.4652V34.2664C51.7621 33.772 51.9487 33.5373 52.2973 33.5373C52.4373 33.5373 52.5773 33.5606 52.7158 33.6073C52.8558 33.6539 53.0644 33.7487 53.2977 33.842C54.0896 34.195 54.95 34.4764 55.8585 34.6645C56.7904 34.8527 57.6975 34.946 58.6294 34.946C60.0965 34.946 61.2369 34.6879 62.0288 34.1702C62.8206 33.6525 63.2392 32.9 63.2392 31.936C63.2392 31.2783 63.0292 30.7373 62.6106 30.2895C62.1921 29.8433 61.4002 29.4437 60.2598 29.0675L56.8838 28.0087C55.1848 27.4677 53.9277 26.6685 53.1592 25.6098C52.3906 24.5758 51.9954 23.4237 51.9954 22.2002C51.9954 21.2129 52.2054 20.3423 52.624 19.5898C53.0425 18.8373 53.6025 18.1795 54.2996 17.6618C54.9981 17.1208 55.79 16.7212 56.7204 16.4398C57.6523 16.1598 58.6294 16.0416 59.6546 16.0416C60.1665 16.0416 60.7017 16.065 61.215 16.135C61.7502 16.205 62.2388 16.2998 62.7287 16.3931C63.194 16.5112 63.6373 16.6279 64.0558 16.7693C64.4744 16.9108 64.801 17.0508 65.0344 17.1923C65.361 17.3804 65.5929 17.5685 65.7329 17.78C65.8729 17.9681 65.9429 18.2262 65.9429 18.5558V19.6612C65.9429 20.1556 65.7563 20.4137 65.4077 20.4137C65.221 20.4137 64.9192 20.3204 64.5225 20.1323C63.1954 19.5212 61.705 19.215 60.0527 19.215C58.7256 19.215 57.6785 19.4264 56.9567 19.8727C56.2348 20.3189 55.8629 21.0014 55.8629 21.9654C55.8629 22.6231 56.0962 23.1875 56.5615 23.6352C57.0267 24.0814 57.8885 24.5291 59.1223 24.9287L62.4283 25.9875C64.104 26.5285 65.3158 27.281 66.0363 28.245C66.7567 29.2089 67.1067 30.3143 67.1067 31.5364C67.1067 32.547 66.8967 33.4643 66.5015 34.2635C66.0829 35.0627 65.5229 35.7685 64.8025 36.3329C64.0806 36.9206 63.2188 37.3435 62.2183 37.6498C61.1669 37.9793 60.0731 38.1441 58.886 38.1441Z" fill="white"/>
<path d="M63.2858 49.5716C55.6267 55.2854 44.4981 58.3187 34.9285 58.3187C21.5192 58.3187 9.43541 53.3108 0.309163 44.9866C-0.412712 44.3289 0.239163 43.435 1.10104 43.9527C10.9725 49.7364 23.1481 53.2408 35.7437 53.2408C44.2415 53.2408 53.5777 51.4543 62.1673 47.7852C63.4492 47.1974 64.5429 48.631 63.2858 49.5716ZM66.4752 45.9039C65.4967 44.6337 60.0031 45.2929 57.5123 45.5977C56.7671 45.691 56.6504 45.0333 57.3256 44.5389C61.7021 41.4356 68.896 42.3281 69.7346 43.3635C70.5731 44.4222 69.5013 51.6877 65.4048 55.1672C64.7762 55.7083 64.171 55.4254 64.4496 54.721C65.3815 52.3935 67.4538 47.1493 66.4752 45.9039Z" fill="#FF9900"/>
</g>
<defs>
<clipPath id="clip0_24_2">
<rect width="70" height="70" fill="white"/>
</clipPath>
</defs>
</svg>
