<svg width="70" height="70" viewBox="0 0 70 70" fill="none" xmlns="http://www.w3.org/2000/svg">
<g clip-path="url(#clip0_24_5)">
<path d="M69.3102 28.9436C69.1206 28.7948 67.3488 27.475 63.611 27.475C62.6238 27.4794 61.6394 27.5625 60.6667 27.7244C59.9433 22.8331 55.9723 20.5348 55.7886 20.4284L54.7852 19.8567L54.1246 20.7959C53.2977 22.0588 52.5671 23.3625 52.2127 24.8252C51.5433 27.6179 51.9502 30.24 53.3881 32.4815C51.6498 33.4367 48.6879 33.5213 48.125 33.5417H2.30709C1.10251 33.5431 0.125422 34.5042 0.11813 35.6913C0.0641716 39.6769 0.632922 43.7894 2.02271 47.5315C3.61084 51.6411 5.9748 54.6686 9.04896 56.5206C12.4935 58.6017 18.0906 59.7917 24.4358 59.7917C27.3015 59.8004 30.1627 59.5452 32.9802 59.0275C36.8973 58.3173 40.6671 56.9669 44.1321 55.0317C46.9875 53.3998 49.5571 51.3246 51.7431 48.8848C55.3963 44.8044 57.5721 40.2617 59.1908 36.2236C59.4081 36.2236 59.6254 36.2236 59.8354 36.2236C63.8356 36.2236 66.2944 34.6442 67.6506 33.3215C68.5519 32.4771 69.2563 31.449 69.7127 30.31L70 29.4817L69.3102 28.9436Z" fill="#2395EC"/>
<path d="M11.6667 32.0833H7.29166C6.48666 32.0833 5.83333 31.43 5.83333 30.625V26.25C5.83333 25.445 6.48666 24.7916 7.29166 24.7916H11.6667C12.4717 24.7916 13.125 25.445 13.125 26.25V30.625C13.125 31.43 12.4717 32.0833 11.6667 32.0833Z" fill="#2395EC"/>
<path d="M20.4167 32.0833H16.0417C15.2367 32.0833 14.5833 31.43 14.5833 30.625V26.25C14.5833 25.445 15.2367 24.7916 16.0417 24.7916H20.4167C21.2217 24.7916 21.875 25.445 21.875 26.25V30.625C21.875 31.43 21.2217 32.0833 20.4167 32.0833Z" fill="#2395EC"/>
<path d="M29.1667 32.0833H24.7917C23.9867 32.0833 23.3333 31.43 23.3333 30.625V26.25C23.3333 25.445 23.9867 24.7916 24.7917 24.7916H29.1667C29.9717 24.7916 30.625 25.445 30.625 26.25V30.625C30.625 31.43 29.9717 32.0833 29.1667 32.0833Z" fill="#2395EC"/>
<path d="M37.9167 32.0833H33.5417C32.7367 32.0833 32.0833 31.43 32.0833 30.625V26.25C32.0833 25.445 32.7367 24.7916 33.5417 24.7916H37.9167C38.7217 24.7916 39.375 25.445 39.375 26.25V30.625C39.375 31.43 38.7217 32.0833 37.9167 32.0833Z" fill="#2395EC"/>
<path d="M20.4167 23.3333H16.0417C15.2367 23.3333 14.5833 22.68 14.5833 21.875V17.5C14.5833 16.695 15.2367 16.0416 16.0417 16.0416H20.4167C21.2217 16.0416 21.875 16.695 21.875 17.5V21.875C21.875 22.68 21.2217 23.3333 20.4167 23.3333Z" fill="#2395EC"/>
<path d="M29.1667 23.3333H24.7917C23.9867 23.3333 23.3333 22.68 23.3333 21.875V17.5C23.3333 16.695 23.9867 16.0416 24.7917 16.0416H29.1667C29.9717 16.0416 30.625 16.695 30.625 17.5V21.875C30.625 22.68 29.9717 23.3333 29.1667 23.3333Z" fill="#2395EC"/>
<path d="M37.9167 23.3333H33.5417C32.7367 23.3333 32.0833 22.68 32.0833 21.875V17.5C32.0833 16.695 32.7367 16.0416 33.5417 16.0416H37.9167C38.7217 16.0416 39.375 16.695 39.375 17.5V21.875C39.375 22.68 38.7217 23.3333 37.9167 23.3333Z" fill="#2395EC"/>
<path d="M37.9167 14.5833H33.5417C32.7367 14.5833 32.0833 13.93 32.0833 13.125V8.74996C32.0833 7.94496 32.7367 7.29163 33.5417 7.29163H37.9167C38.7217 7.29163 39.375 7.94496 39.375 8.74996V13.125C39.375 13.93 38.7217 14.5833 37.9167 14.5833Z" fill="#2395EC"/>
<path d="M46.6667 32.0833H42.2917C41.4867 32.0833 40.8333 31.43 40.8333 30.625V26.25C40.8333 25.445 41.4867 24.7916 42.2917 24.7916H46.6667C47.4717 24.7916 48.125 25.445 48.125 26.25V30.625C48.125 31.43 47.4717 32.0833 46.6667 32.0833Z" fill="#2395EC"/>
</g>
<defs>
<clipPath id="clip0_24_5">
<rect width="70" height="70" fill="white"/>
</clipPath>
</defs>
</svg>
