<svg width="70" height="70" viewBox="0 0 70 70" fill="none" xmlns="http://www.w3.org/2000/svg">
<path d="M17.5 32.0833H16.0417V31.3542C16.0417 30.9458 16.3625 30.625 16.7708 30.625C17.1792 30.625 17.5 30.9458 17.5 31.3542V32.0833Z" fill="#34313F"/>
<path d="M32.4479 30.625C32.3167 30.625 32.2 30.6542 32.0833 30.6979C31.6604 30.8438 31.3542 31.2521 31.3542 31.7188V34.6354C31.3542 35.1021 31.6604 35.5104 32.0833 35.6563C32.2 35.7 32.3167 35.7292 32.4479 35.7292C33.0458 35.7292 33.5417 35.2333 33.5417 34.6354V31.7188C33.5417 31.1208 33.0458 30.625 32.4479 30.625ZM32.4479 30.625C32.3167 30.625 32.2 30.6542 32.0833 30.6979C31.6604 30.8438 31.3542 31.2521 31.3542 31.7188V34.6354C31.3542 35.1021 31.6604 35.5104 32.0833 35.6563C32.2 35.7 32.3167 35.7292 32.4479 35.7292C33.0458 35.7292 33.5417 35.2333 33.5417 34.6354V31.7188C33.5417 31.1208 33.0458 30.625 32.4479 30.625ZM32.4479 30.625C32.3167 30.625 32.2 30.6542 32.0833 30.6979C31.6604 30.8438 31.3542 31.2521 31.3542 31.7188V34.6354C31.3542 35.1021 31.6604 35.5104 32.0833 35.6563C32.2 35.7 32.3167 35.7292 32.4479 35.7292C33.0458 35.7292 33.5417 35.2333 33.5417 34.6354V31.7188C33.5417 31.1208 33.0458 30.625 32.4479 30.625ZM43.0208 30.625C42.6125 30.625 42.2917 30.9458 42.2917 31.3542V32.0833H43.75V31.3542C43.75 30.9458 43.4292 30.625 43.0208 30.625ZM43.0208 30.625C42.6125 30.625 42.2917 30.9458 42.2917 31.3542V32.0833H43.75V31.3542C43.75 30.9458 43.4292 30.625 43.0208 30.625ZM32.4479 30.625C32.3167 30.625 32.2 30.6542 32.0833 30.6979C31.6604 30.8438 31.3542 31.2521 31.3542 31.7188V34.6354C31.3542 35.1021 31.6604 35.5104 32.0833 35.6563C32.2 35.7 32.3167 35.7292 32.4479 35.7292C33.0458 35.7292 33.5417 35.2333 33.5417 34.6354V31.7188C33.5417 31.1208 33.0458 30.625 32.4479 30.625ZM55.4167 8.75H14.5833C11.3604 8.75 8.75 11.3604 8.75 14.5833V55.4167C8.75 58.6396 11.3604 61.25 14.5833 61.25H55.4167C58.6396 61.25 61.25 58.6396 61.25 55.4167V14.5833C61.25 11.3604 58.6396 8.75 55.4167 8.75ZM14.5833 31.3542C14.5833 30.1438 15.5604 29.1667 16.7708 29.1667C17.9812 29.1667 18.9583 30.1438 18.9583 31.3542V33.5417H16.0417V35C16.0417 35.4083 16.3625 35.7292 16.7708 35.7292C17.1792 35.7292 17.5 35.4083 17.5 35H18.9583C18.9583 36.2104 17.9812 37.1875 16.7708 37.1875C15.5604 37.1875 14.5833 36.2104 14.5833 35V31.3542ZM35 34.825C35 36.1229 33.9354 37.1875 32.6375 37.1875H32.6229C32.4333 37.1875 32.2583 37.1729 32.0833 37.1292C31.8208 37.0708 31.5729 36.9542 31.3542 36.8083V40.1042H29.8958V29.1667H31.3542V29.5458C31.5729 29.4 31.8208 29.2833 32.0833 29.225C32.2583 29.1813 32.4333 29.1667 32.6229 29.1667H32.6375C33.9354 29.1667 35 30.2313 35 31.5292V34.825ZM26.1479 31.1063C28.5396 38.1792 31.0042 47.6729 30.625 56.1458L28.4375 55.4167C28.4375 55.4167 27.5187 48.125 23.5375 34.2417C20.9271 37.5229 18.2875 41.4604 16.0417 45.9375H14.5833C14.5833 45.9375 15.3854 41.5188 22.9833 32.3604C22.05 29.1813 20.9563 25.6812 19.6875 21.875L21.875 20.4167C21.875 20.4167 23.6104 24.0188 25.5354 29.3854C27.7375 26.9208 30.3771 24.1792 33.5417 21.1458L35 22.6042C35 22.6042 30.9604 25.6375 26.1479 31.1063ZM40.1042 30.6688C39.9875 30.6396 39.8708 30.625 39.7396 30.625C38.8646 30.625 38.0771 31.2521 37.9167 32.0833V37.1875H36.4583V29.1667H37.9167V30.1875C37.9604 30.1292 38.0042 30.0708 38.0479 30.0271C38.5729 29.4875 39.3021 29.1667 40.1042 29.1667V30.6688ZM45.2083 33.5417H42.2917V35C42.2917 35.4083 42.6125 35.7292 43.0208 35.7292C43.4292 35.7292 43.75 35.4083 43.75 35H45.2083C45.2083 36.2104 44.2313 37.1875 43.0208 37.1875C41.8104 37.1875 40.8333 36.2104 40.8333 35V31.3542C40.8333 30.1438 41.8104 29.1667 43.0208 29.1667C44.2313 29.1667 45.2083 30.1438 45.2083 31.3542V33.5417ZM50.4583 35.7438C50.3417 36.0208 50.1813 36.2688 49.9771 36.4875C49.7583 36.7063 49.5104 36.8813 49.2333 36.9979C48.9417 37.1292 48.6208 37.1875 48.2854 37.1875C47.6438 37.1875 47.1187 36.9833 46.6812 36.5896C46.4625 36.3854 46.2875 36.1375 46.1562 35.8458C46.025 35.5542 45.9521 35.2188 45.9375 34.825H47.425C47.4542 35.0437 47.5271 35.2333 47.6437 35.4229C47.7604 35.6125 47.9792 35.7 48.2708 35.7C48.5042 35.7 48.6938 35.6271 48.8833 35.4813C49.0583 35.3354 49.1458 35.1167 49.1458 34.8542C49.1458 34.6354 49.1021 34.4458 48.9854 34.3C48.8688 34.1396 48.6646 34.0083 48.3583 33.8917L47.6 33.6146C47.1188 33.425 46.725 33.1625 46.4333 32.7833C46.1562 32.4188 46.0104 31.9813 46.0104 31.4562C46.0104 31.1208 46.0833 30.8146 46.2 30.5375C46.3167 30.2458 46.4917 30.0125 46.7104 29.7938C46.9146 29.5896 47.1625 29.4438 47.4396 29.3271C47.7167 29.225 48.0083 29.1667 48.3292 29.1667C48.65 29.1667 48.9417 29.225 49.2188 29.3417C49.4958 29.4438 49.7292 29.6042 49.9188 29.8229C50.1229 30.0271 50.2687 30.2604 50.3854 30.5521C50.5021 30.8292 50.5604 31.1354 50.5604 31.4562H49.0729C49.0583 31.1792 48.9854 30.9896 48.825 30.8438C48.6646 30.7125 48.475 30.6542 48.2708 30.6542C48.0229 30.6542 47.8333 30.7271 47.7021 30.8875C47.5708 31.0479 47.4979 31.2375 47.4979 31.4417C47.4979 31.5875 47.5271 31.7188 47.6 31.8646C47.6729 31.9958 47.8625 32.1271 48.1688 32.2438L49.0875 32.6083C49.6708 32.8417 50.0792 33.1479 50.2979 33.5417C50.5313 33.9354 50.6333 34.3583 50.6333 34.825C50.6333 35.1458 50.575 35.4667 50.4583 35.7438ZM55.9708 35.7438C55.8542 36.0208 55.6938 36.2688 55.475 36.4875C55.2708 36.7063 55.0229 36.8813 54.7458 36.9979C54.4542 37.1292 54.1333 37.1875 53.7979 37.1875C53.1562 37.1875 52.6167 36.9833 52.1938 36.5896C51.975 36.3854 51.8 36.1375 51.6688 35.8458C51.5229 35.5542 51.45 35.2188 51.45 34.825H52.9375C52.9667 35.0437 53.0396 35.2333 53.1563 35.4229C53.2729 35.6125 53.4771 35.7 53.7833 35.7C54.0021 35.7 54.2062 35.6271 54.3958 35.4813C54.5708 35.3354 54.6583 35.1167 54.6583 34.8542C54.6583 34.6354 54.6 34.4458 54.4979 34.3C54.3812 34.1396 54.1771 34.0083 53.8708 33.8917L53.1125 33.6146C52.6167 33.425 52.2375 33.1625 51.9458 32.7833C51.6688 32.4188 51.5229 31.9813 51.5229 31.4562C51.5229 31.1208 51.5812 30.8146 51.7125 30.5375C51.8292 30.2458 52.0042 30.0125 52.2229 29.7938C52.4271 29.5896 52.675 29.4438 52.9521 29.3271C53.2292 29.225 53.5208 29.1667 53.8417 29.1667C54.1625 29.1667 54.4542 29.225 54.7313 29.3417C55.0083 29.4438 55.2417 29.6042 55.4312 29.8229C55.6354 30.0271 55.7813 30.2604 55.8979 30.5521C56.0146 30.8292 56.0729 31.1354 56.0729 31.4562H54.5854C54.5708 31.1792 54.4833 30.9896 54.3375 30.8438C54.1771 30.7125 53.9875 30.6542 53.7833 30.6542C53.5354 30.6542 53.3458 30.7271 53.2146 30.8875C53.0688 31.0479 53.0104 31.2375 53.0104 31.4417C53.0104 31.5875 53.0396 31.7188 53.1125 31.8646C53.1854 31.9958 53.375 32.1271 53.6667 32.2438L54.6 32.6083C55.1833 32.8417 55.5917 33.1479 55.8104 33.5417C56.0292 33.9354 56.1458 34.3583 56.1458 34.825C56.1458 35.1458 56.0875 35.4667 55.9708 35.7438ZM43.0208 30.625C42.6125 30.625 42.2917 30.9458 42.2917 31.3542V32.0833H43.75V31.3542C43.75 30.9458 43.4292 30.625 43.0208 30.625ZM32.4479 30.625C32.3167 30.625 32.2 30.6542 32.0833 30.6979C31.6604 30.8438 31.3542 31.2521 31.3542 31.7188V34.6354C31.3542 35.1021 31.6604 35.5104 32.0833 35.6563C32.2 35.7 32.3167 35.7292 32.4479 35.7292C33.0458 35.7292 33.5417 35.2333 33.5417 34.6354V31.7188C33.5417 31.1208 33.0458 30.625 32.4479 30.625ZM32.4479 30.625C32.3167 30.625 32.2 30.6542 32.0833 30.6979C31.6604 30.8438 31.3542 31.2521 31.3542 31.7188V34.6354C31.3542 35.1021 31.6604 35.5104 32.0833 35.6563C32.2 35.7 32.3167 35.7292 32.4479 35.7292C33.0458 35.7292 33.5417 35.2333 33.5417 34.6354V31.7188C33.5417 31.1208 33.0458 30.625 32.4479 30.625ZM43.0208 30.625C42.6125 30.625 42.2917 30.9458 42.2917 31.3542V32.0833H43.75V31.3542C43.75 30.9458 43.4292 30.625 43.0208 30.625ZM43.0208 30.625C42.6125 30.625 42.2917 30.9458 42.2917 31.3542V32.0833H43.75V31.3542C43.75 30.9458 43.4292 30.625 43.0208 30.625ZM32.4479 30.625C32.3167 30.625 32.2 30.6542 32.0833 30.6979C31.6604 30.8438 31.3542 31.2521 31.3542 31.7188V34.6354C31.3542 35.1021 31.6604 35.5104 32.0833 35.6563C32.2 35.7 32.3167 35.7292 32.4479 35.7292C33.0458 35.7292 33.5417 35.2333 33.5417 34.6354V31.7188C33.5417 31.1208 33.0458 30.625 32.4479 30.625ZM32.4479 30.625C32.3167 30.625 32.2 30.6542 32.0833 30.6979C31.6604 30.8438 31.3542 31.2521 31.3542 31.7188V34.6354C31.3542 35.1021 31.6604 35.5104 32.0833 35.6563C32.2 35.7 32.3167 35.7292 32.4479 35.7292C33.0458 35.7292 33.5417 35.2333 33.5417 34.6354V31.7188C33.5417 31.1208 33.0458 30.625 32.4479 30.625ZM32.4479 30.625C32.3167 30.625 32.2 30.6542 32.0833 30.6979C31.6604 30.8438 31.3542 31.2521 31.3542 31.7188V34.6354C31.3542 35.1021 31.6604 35.5104 32.0833 35.6563C32.2 35.7 32.3167 35.7292 32.4479 35.7292C33.0458 35.7292 33.5417 35.2333 33.5417 34.6354V31.7188C33.5417 31.1208 33.0458 30.625 32.4479 30.625Z" fill="white"/>
</svg>
