<svg width="70" height="70" viewBox="0 0 70 70" fill="none" xmlns="http://www.w3.org/2000/svg">
<g clip-path="url(#clip0_15_102)">
<rect width="70" height="70" rx="10" fill="#4F4F4F"/>
<path d="M9.1584 45.675C7.99028 44.7563 6.74486 43.8769 5.89465 42.6373C4.10382 40.4513 2.72569 37.9196 1.78215 35.2596C1.21194 33.53 1.01798 31.675 0.282983 30.0125C-0.485558 28.805 0.414233 27.4852 1.73694 27.1002C2.32611 26.9865 3.36153 26.4323 2.11173 26.829C0.991733 27.6515 0.882358 26.0823 2.03153 25.9831C2.81611 25.8796 3.10486 25.2365 2.83653 24.659C1.99507 24.1106 4.87819 23.5069 3.42715 22.6873C1.91632 21.0569 5.54173 20.7433 4.64632 22.594C4.43194 24.0173 7.17944 22.3329 6.54215 23.9779C7.18965 24.7669 8.96882 24.1573 8.92361 25.2656C9.86715 25.3298 10.1909 26.1246 11.0776 26.1858C11.9963 26.6 13.6603 26.9267 13.9724 27.9621C13.0609 28.684 10.9522 26.4717 10.8501 28.4681C11.1257 31.4169 11.0557 34.4561 12.1349 37.2633C12.6453 38.9638 13.8819 40.3025 15.0005 41.6267C16.0694 42.9231 17.5176 43.8375 18.9934 44.6061C20.2884 45.2171 21.684 45.6211 23.0957 45.8763C23.6674 45.4388 24.678 43.8113 25.5719 44.4967C25.6142 45.2681 23.8001 46.1081 25.4859 46.0236C26.4761 45.7246 27.163 46.7892 27.9797 45.8296C28.7307 46.7192 31.1034 45.2608 30.5682 47.0808C29.8449 47.5475 28.7905 47.2661 28.0672 47.9077C26.8728 47.3113 25.9219 48.4415 24.6007 48.2986C23.1322 48.5611 21.6388 48.6675 20.1513 48.6704C17.7101 48.4779 15.2163 48.3963 12.8932 47.5461C11.5851 47.1654 10.3076 46.4202 9.1584 45.675ZM11.2205 46.5675C12.498 47.1202 13.7478 47.7021 15.1478 47.8786C17.3688 48.1877 19.6628 48.6631 21.8926 48.2286C20.8834 47.7736 19.8407 48.4065 18.8344 47.9033C17.6284 48.1629 16.3349 47.8377 15.1099 47.6773C13.7157 47.0561 12.2122 46.6302 10.9069 45.8238C9.27653 45.2288 11.7499 46.5879 12.1903 46.6973C13.2097 47.2763 11.0688 46.4013 10.7669 46.1606C9.91236 45.6823 9.80444 45.7815 10.6824 46.2686C10.8603 46.3706 11.0353 46.48 11.2205 46.5675ZM8.78944 44.8496C10.0276 45.3075 8.78361 43.979 8.21632 44.0563C7.96548 43.6202 7.25527 43.3446 7.75548 43.1098C6.85569 43.4219 6.8134 41.9227 6.39048 42.1371C5.43819 41.8367 6.02007 40.7721 4.88694 40.1188C4.7834 39.4304 3.76111 38.8325 3.43444 37.7927C3.29007 37.2604 2.27944 35.7336 2.90069 37.1554C3.43007 38.5248 4.36048 39.6958 5.13486 40.8669C5.73569 41.9811 6.44736 43.1463 7.54257 43.8419C7.91152 44.1963 8.26736 44.7388 8.78944 44.8496ZM14.2436 47.1523C14.7511 47.4717 17.204 47.8538 15.6684 47.2836C15.4103 47.3375 12.8188 46.55 14.2436 47.1523ZM8.63923 42.6023C9.23423 43.0588 11.0382 42.6606 9.55069 42.3296C8.87257 41.9679 7.34715 41.7215 8.38694 42.5469L8.63923 42.6023ZM11.5194 44.1277C12.9749 44.539 10.2959 43.2075 11.1607 43.9761L11.3517 44.0621L11.5194 44.1277ZM14.0394 45.5846C12.7955 45.395 15.4176 45.5977 14.0394 45.5846V45.5846ZM11.5311 43.3577C12.5884 43.4933 10.274 42.6388 11.2992 43.2819L11.5311 43.3577ZM15.2046 45.6152C16.1919 45.0246 15.8667 46.9963 16.8788 45.7815C17.8778 45.0523 16.0155 46.6827 17.2478 45.9113C18.1388 45.3163 19.4528 46.1942 20.284 46.48C20.8819 46.4508 21.4624 46.9963 22.0749 46.6638C23.2532 46.3458 19.7692 46.1927 20.6822 45.6298C19.603 45.9433 18.8067 45.255 18.2759 44.5638C17.0655 44.2838 15.6669 43.6654 15.0632 42.595C14.8167 42.1925 15.419 42.6519 14.8503 41.9942C14.1211 41.3452 13.7565 40.6088 13.268 39.8213C12.6832 39.5092 12.6147 38.5904 12.5563 39.7906C12.5607 39.0338 11.8505 38.5248 11.6769 38.7363C11.674 38.0071 12.4382 38.3731 11.903 37.8336C11.7878 37.0781 11.4086 36.2906 11.2949 35.4375C11.1184 35.0263 11.2701 34.1454 10.6911 35.0758C10.4796 36.0602 10.6211 33.8669 10.9492 34.5902C11.3794 33.8523 10.7947 33.9398 10.7713 34.0419C11.0513 33.4192 10.9492 32.5369 10.6984 32.8738C10.8471 32.2146 10.9347 30.4456 10.4753 30.7592C10.7538 30.0694 11.0032 27.6019 9.79423 28.5425C9.30423 28.5498 8.45548 28.7204 8.05298 28.9202C9.31152 29.6144 7.92611 29.1711 7.41423 29.0602C7.34715 29.7019 6.83965 29.4248 6.20673 29.4306C7.21882 29.5561 5.71382 30.4661 5.1334 30.1131C4.37507 30.4733 5.7809 31.3731 5.14507 31.6517C5.22382 32.0717 3.99007 31.5 4.08632 32.4683C3.35423 32.1606 3.98569 33.6175 4.35173 33.1246C5.59715 33.4615 5.22819 34.23 5.26028 34.9606C5.05757 35.3865 4.2584 33.9602 5.08236 34.0273C4.43194 32.9715 4.3634 33.6452 3.82382 34.1367C3.6984 34.1717 5.20194 34.8352 4.2584 35.1619C5.08819 35.2902 5.11153 36.0165 5.28069 36.4758C5.77944 36.995 5.67736 35.9027 6.27382 36.5269C5.89611 35.9698 4.27298 34.9592 5.57965 35.2829C5.57236 34.7229 5.3434 34.2708 5.74298 34.2825C6.13965 33.565 5.32736 36.0529 6.22132 35.14C6.46923 35.0321 6.53048 34.4211 6.97528 35.1983C7.62132 35.8342 7.20861 36.2936 6.29715 35.7117C6.46048 36.2644 7.51632 36.4627 7.31798 37.3275C7.52798 38.0888 7.82257 37.8073 8.07923 37.7636C8.28048 38.5029 8.39423 37.959 8.40444 37.6075C9.32611 37.8044 9.11028 38.3498 9.39902 38.7304C10.0334 39.0177 8.49048 36.7879 9.57986 38.0596C10.7261 39.095 10.0101 39.5267 8.98048 39.3619C9.63236 39.3094 9.84236 40.2427 10.6561 40.2092C11.3984 40.5621 11.9015 41.9198 10.6211 41.3554C10.1763 40.9544 8.60569 40.4615 9.88903 41.2227C11.0747 41.7725 12.0167 42.1006 13.1601 42.789C13.9782 43.3738 14.3326 44.0431 14.6417 44.1744C13.9534 44.5025 12.568 43.9119 13.5976 43.7311C12.9559 43.6144 12.234 43.2892 12.8494 44.0898C13.3715 44.5258 14.7001 44.4792 14.9392 44.5288C14.738 44.9736 14.3909 45.0086 14.948 45.0436C14.3267 45.3761 15.1478 45.4271 15.2046 45.6152ZM13.9344 42.0292C13.5567 41.634 13.459 40.8946 13.8674 41.5377C14.0774 41.6223 14.5382 42.7481 13.9344 42.0292ZM11.5136 38.0406C11.063 37.0315 11.833 37.4894 11.6128 38.2054L11.5136 38.0406ZM7.36757 35.2771C7.16632 34.9461 6.83382 33.9748 6.94027 33.6788C7.03798 34.1615 7.96694 35.7569 7.39673 34.3394C6.76673 33.1508 8.15069 34.7244 8.29361 35.0219C8.35923 35.3165 7.90423 34.9417 8.2134 35.6329C7.65048 34.8454 7.8809 36.0661 7.36757 35.2771ZM5.27632 33.5198C4.79944 33.0458 4.45382 32.6083 5.29819 33.2252C5.6234 33.2383 4.57486 32.2321 5.37694 32.9058C6.21986 33.0604 5.79403 34.2883 5.27632 33.5198ZM5.56215 32.7936C4.17528 31.5598 7.30486 33.4381 5.78819 33.0225L5.56215 32.7936ZM9.53465 35.1021C8.93528 34.7419 9.37569 32.569 9.57986 34.055C10.1632 33.8669 9.54777 34.8221 9.98236 34.8133C9.91527 35.4171 9.71986 35.6344 9.53465 35.1021ZM5.83486 32.3881C4.94382 31.1588 8.4234 33.6306 6.40507 32.7002C6.19361 32.6448 5.93986 32.6258 5.83486 32.3881ZM8.66403 33.8888C8.57944 32.8533 8.85215 34.0594 8.66403 33.8888V33.8888ZM5.97048 31.92C6.49986 31.8063 8.16382 32.8504 6.63548 32.2175C6.46632 32.0294 6.10465 32.114 5.97048 31.92ZM10.5176 34.1848C10.5744 33.1261 10.834 33.5533 10.519 34.3365L10.5176 34.1848ZM6.36569 31.5511C6.58152 31.2346 5.79257 30.1204 6.47944 31.1515C6.77548 31.3877 7.3384 31.5467 6.84111 31.6458C7.62132 32.3342 6.65007 31.8325 6.36569 31.5511ZM9.41507 31.6356C9.34798 31.2273 9.64402 32.149 9.41507 31.6356V31.6356ZM9.81611 30.9838C9.54048 30.4981 10.1632 28.8458 10.2332 29.8711C9.94298 30.6688 10.1501 31.1165 10.3513 30.0446C10.7261 29.2031 10.2711 31.7086 9.81611 30.9838ZM10.9565 42.7963C11.744 42.999 11.7411 42.6738 11.028 42.5775C10.6444 42.2217 9.43548 41.8425 10.5176 42.5338C10.5905 42.7146 10.8165 42.7102 10.9565 42.7963ZM8.15798 40.9383C8.59257 41.2621 9.79278 41.8556 8.77632 41.0623C9.11903 40.6642 8.12007 40.4513 8.45111 40.1858C7.60819 39.6696 7.78611 39.7163 8.37673 39.7323C7.36319 39.2788 8.52257 39.3138 8.46861 39.0819C8.07778 39.0046 6.52757 38.3936 7.44048 39.1315C6.51298 38.659 7.22027 39.3079 6.93882 39.2394C5.9909 38.9813 7.78319 39.9613 6.78861 39.7177C7.33257 40.1479 8.25278 40.8217 7.01903 40.1742C6.85569 40.4061 7.90132 40.7604 8.15798 40.9383ZM18.0061 46.7119C18.4217 46.3094 18.0236 47.3536 18.6944 46.6127C18.7017 46.0833 18.674 45.7698 17.923 46.4129C17.7159 46.5296 17.6226 47.0181 18.0061 46.7119ZM11.1986 42.3413C11.6609 42.7525 13.3219 42.6431 11.7601 42.3923C11.5282 42.0511 10.2901 42.1327 11.1986 42.3413ZM19.1917 47.1115C18.4276 47.1611 19.9792 46.2773 19.1917 47.1115V47.1115ZM3.58173 37.2254C2.90944 36.2673 3.16465 35.8356 2.51569 35.054C2.39319 34.4561 1.40444 33.0969 2.00382 34.5363C2.55361 35.3777 2.71694 36.68 3.58173 37.2254ZM19.8203 46.9846C20.5232 46.531 19.6584 46.6011 19.6934 47.0269L19.8203 46.9846ZM20.9476 47.2908C21.8488 46.6404 20.4022 47.1669 20.758 47.4133L20.9476 47.2908ZM5.83486 37.6571C6.49548 37.8044 8.47444 39.2831 7.30632 37.7592C6.7084 37.5827 7.06715 36.1215 6.45757 36.3796C6.86736 37.0636 6.79444 37.3538 5.93548 36.9236C4.85486 36.3956 5.32882 37.1846 5.54028 37.4019C5.25007 37.4675 5.91944 37.6527 5.83486 37.6571ZM2.82632 35.2815C2.94444 34.7929 1.7384 32.5908 2.25611 34.179C2.44278 34.5115 2.42382 35.1415 2.82632 35.2815ZM16.4413 43.4554C15.8944 43.4467 16.3028 43.1011 16.4413 43.4554V43.4554ZM23.4836 46.6842C24.1369 46.5515 25.6259 47.0167 25.8665 46.5106C25.0732 46.4917 23.1205 45.9506 23.0286 46.639L23.2022 46.6667L23.4836 46.6842ZM3.12673 32.4727C3.7859 32.2131 1.92653 31.9375 2.99257 32.4231L3.12673 32.4727ZM1.06903 30.17C0.949442 29.4875 0.965483 28.2888 2.1059 28.6942C0.584858 28.9961 3.15882 30.5842 2.83361 29.33C3.47236 29.3606 4.08486 28.9523 3.74944 29.5736C5.00944 29.435 5.88298 28.3413 7.09923 28.4944C8.04715 28.369 9.08403 28.2742 10.1049 27.8921C10.9449 27.8323 11.7528 26.9267 11.2934 26.3915C10.1486 26.2952 8.9484 26.4381 7.68257 26.689C6.27965 26.9806 5.00507 27.5348 3.59048 27.7725C2.2109 27.9577 3.86757 28.2829 3.47236 28.3558C2.75194 28.6052 4.33132 28.7744 3.37903 29.0369C2.79132 28.9246 2.17882 28.7233 2.42965 28.1036C1.1084 28.2756 -0.0538916 28.824 0.990275 30.1686L1.06903 30.17ZM4.25403 28.5483C4.56319 27.4065 5.91361 29.4875 4.76153 28.7C4.62444 28.5965 4.39694 28.5133 4.25403 28.5483ZM4.88111 28.0044C4.92194 27.4794 6.18048 28.2829 5.08819 28.194L4.88111 28.0044ZM5.85673 27.5581C6.32923 26.9908 8.53132 27.1965 6.91986 27.5027C6.48819 27.1775 6.15715 27.6952 5.85673 27.5581ZM9.54778 27.1104C9.84527 26.3288 10.7057 26.7969 9.68632 26.9529C9.70819 27.0375 9.65569 27.3569 9.54778 27.1104ZM2.96486 31.255C2.0184 30.7811 3.8559 30.7096 2.96486 31.255V31.255ZM28.7263 46.6944C29.438 46.6973 30.8832 46.4727 29.3344 46.4742C29.0909 46.5121 27.9184 46.5048 28.7263 46.6944ZM4.20298 31.1179C4.77903 31.0786 5.10423 30.4821 4.09215 30.5171C2.52298 30.3552 5.47757 31.0552 3.8909 30.854C3.67653 30.9954 4.18986 31.1558 4.20298 31.1179ZM3.39653 26.5665C4.42465 26.2165 5.83048 25.8242 6.31611 26.7386C5.82173 26.1436 6.11632 25.5588 6.58298 26.4279C7.24215 27.3073 7.57319 26.0283 7.14444 25.7323C7.63298 26.3404 8.19007 26.6277 7.47257 25.7702C8.25278 24.8325 5.91069 25.8927 5.3784 25.8825C5.12028 25.9992 2.73298 26.4936 3.39653 26.5665ZM3.99882 25.4129C4.58507 24.9711 6.02736 25.6769 5.10132 24.9725C5.0109 24.8938 3.07569 25.5063 3.99882 25.4129ZM6.13673 25.5019C6.82361 25.5194 5.84069 24.5802 6.65882 25.0061C6.52465 24.5671 5.70653 24.4854 5.30694 24.3104C5.07944 24.71 5.76632 25.5063 6.13673 25.5019ZM5.24715 23.7694C6.35257 23.6221 4.96569 23.2925 5.02402 23.7577L5.24715 23.7694ZM3.61528 22.4933C2.83653 21.4769 5.07944 22.664 4.28903 21.5994C3.62257 21.07 2.98382 22.1973 3.61528 22.4933ZM13.6092 27.8761C13.9665 27.2431 12.1349 27.0229 13.3686 27.6515C13.4809 27.6894 13.4561 27.9198 13.6092 27.8761Z" fill="white"/>
<path d="M30.466 23.5098C30.3377 24.0129 30.259 24.8588 30.2298 26.0459C30.2298 26.2792 30.1248 26.3959 29.9148 26.3959C29.7048 26.3959 29.5575 26.2938 29.4758 26.0911C29.2498 25.5427 29.0369 25.1592 28.8327 24.9419C28.5921 24.6867 28.2727 24.5321 27.8746 24.4796C27.4458 24.4125 26.3798 24.3775 24.6735 24.3775C24.2827 24.3775 24.0275 24.4184 23.9065 24.5015C23.8306 24.554 23.7942 24.6663 23.7942 24.8398V29.9469C23.7942 30.1204 23.9035 30.2021 24.1208 30.1948C24.7902 30.1875 25.7585 30.1423 27.0287 30.0592C27.2767 30.0286 27.4444 29.9484 27.5304 29.8171C27.6165 29.6859 27.701 29.3461 27.7842 28.7963C27.8367 28.4959 28.0131 28.3792 28.3135 28.4463C28.5687 28.4988 28.6781 28.6154 28.6402 28.7963C28.4302 29.8186 28.3617 31.1486 28.4375 32.7863C28.4448 32.9817 28.3208 33.0867 28.0656 33.1013C27.8556 33.1231 27.7244 33.0109 27.6704 32.7629C27.475 31.8238 27.1119 31.3221 26.5825 31.2579C26.0531 31.1938 25.1898 31.1617 23.9954 31.1617C23.8598 31.1617 23.7927 31.2113 23.7927 31.3075V36.3796C23.7927 36.7559 23.9312 37.0111 24.2098 37.1467C24.4271 37.259 24.8981 37.3611 25.6185 37.4515C25.986 37.4894 26.1479 37.6513 26.1027 37.9356C26.0575 38.1836 25.7265 38.2813 25.111 38.2288C23.3304 38.0859 21.8604 38.0931 20.704 38.2506C20.3802 38.2959 20.2198 38.1646 20.2198 37.8554C20.2198 37.66 20.3817 37.5477 20.704 37.5171C21.4404 37.434 21.8094 36.7879 21.8094 35.5775V25.9277C21.8094 25.4319 21.7204 25.0498 21.544 24.7829C21.3675 24.5161 21.0379 24.274 20.5581 24.0552C20.2577 23.9196 20.1454 23.7359 20.2198 23.5025C20.2577 23.3596 20.3175 23.2809 20.4006 23.2663C20.4765 23.2444 20.6748 23.259 20.9985 23.3115C21.4725 23.3873 22.5881 23.4238 24.3469 23.4238C26.4206 23.4238 28.2129 23.3786 29.7237 23.2881C30.2269 23.2575 30.4792 23.2998 30.4792 23.4121C30.4762 23.45 30.4733 23.4792 30.466 23.5098Z" fill="white"/>
<path d="M37.7927 37.8365C37.7927 38.1369 37.6235 38.2682 37.2852 38.2317C36.2483 38.134 34.9635 38.1486 33.4294 38.2769C33.1217 38.3076 32.9321 38.2988 32.8606 38.2551C32.7892 38.2098 32.7542 38.0859 32.7542 37.8832C32.7542 37.7023 32.9583 37.5507 33.3681 37.4267C33.7779 37.3028 33.9821 36.9323 33.9821 36.3169V26.1159C33.9821 25.5078 33.8931 25.0601 33.7167 24.7742C33.5402 24.4884 33.2296 24.2667 32.7862 24.1092C32.5529 24.0261 32.4362 23.9094 32.4362 23.7592C32.4362 23.5332 32.6054 23.364 32.9437 23.2517C33.4542 23.0869 33.985 22.8303 34.5333 22.4846C34.984 22.2134 35.2698 22.0792 35.3894 22.0792C35.6679 22.0792 35.8065 22.2703 35.8065 22.6538C35.8065 22.6232 35.7919 22.9994 35.7612 23.7811C35.7394 24.5248 35.7306 25.2584 35.7394 25.9788L35.7846 36.0457C35.7846 36.5036 35.8969 36.8361 36.1229 37.0432C36.349 37.2503 36.7354 37.3873 37.2837 37.4544C37.6235 37.4909 37.7927 37.6192 37.7927 37.8365Z" fill="white"/>
<path d="M48.0725 37.081C48.0725 37.2385 47.7852 37.4777 47.2106 37.7971C46.636 38.1165 46.1752 38.2769 45.8296 38.2769C45.5365 38.2769 45.2769 38.134 45.0523 37.8481C44.8262 37.5623 44.6687 37.4194 44.5783 37.4194C44.5112 37.4194 44.154 37.574 43.5079 37.8817C42.8619 38.1894 42.2115 38.344 41.5581 38.344C40.9412 38.344 40.4265 38.1631 40.0137 37.8029C39.5631 37.4048 39.3371 36.8637 39.3371 36.1798C39.3371 34.8804 40.8246 33.9485 43.801 33.3842C44.3115 33.2865 44.571 33.0794 44.5783 32.7644L44.6002 32.0425C44.6454 30.8102 44.1 30.1933 42.9654 30.1933C42.6417 30.1933 42.3354 30.4821 42.0467 31.061C41.7579 31.64 41.3423 31.9521 40.8012 31.9973C40.1844 32.0571 39.8767 31.7975 39.8767 31.22C39.8767 30.8598 40.3346 30.4383 41.2519 29.9571C42.2144 29.454 43.1375 29.2017 44.0242 29.2017C45.5496 29.2017 46.305 29.9265 46.2904 31.3775L46.2452 36.0223C46.2379 36.5108 46.445 36.7544 46.865 36.7544C46.9481 36.7544 47.1056 36.7354 47.339 36.6975C47.5723 36.6596 47.7065 36.6406 47.7444 36.6406C47.9646 36.6421 48.0725 36.7879 48.0725 37.081ZM44.6017 34.5115C44.609 34.3233 44.5667 34.1994 44.4719 34.1396C44.3785 34.0798 44.2298 34.0681 44.0271 34.106C42.2158 34.4298 41.3102 35.019 41.3102 35.8765C41.3102 36.7412 41.7798 37.1729 42.719 37.1729C43.0952 37.1729 43.4817 37.1015 43.8798 36.9585C44.345 36.7937 44.5783 36.594 44.5783 36.3606L44.6017 34.5115Z" fill="white"/>
<path d="M56.4827 35.7394C56.4827 36.5357 56.1765 37.1686 55.564 37.6382C54.9515 38.1077 54.1158 38.3425 53.0556 38.3425C52.3498 38.3425 51.6425 38.2667 50.9367 38.1165C50.3285 37.9809 49.9742 37.8569 49.8765 37.7446C49.8167 37.6396 49.786 37.1248 49.786 36.2002C49.786 35.8021 49.8765 35.595 50.0573 35.5804C50.2381 35.5586 50.3912 35.6563 50.5196 35.8736C51.0825 36.8579 51.9925 37.3509 53.2481 37.3509C54.3083 37.3509 54.8377 36.9819 54.8377 36.2454C54.8377 35.9217 54.7181 35.6519 54.4775 35.4332C54.215 35.1852 53.7031 34.8965 52.9448 34.5654C51.8481 34.0769 51.1146 33.6482 50.7471 33.2807C50.349 32.8898 50.1492 32.3634 50.1492 31.7027C50.1492 30.8904 50.4612 30.2604 51.0854 29.8084C51.6644 29.3723 52.4388 29.155 53.4071 29.155C54.0152 29.155 54.5723 29.2046 55.0754 29.3009C55.6165 29.3986 55.8979 29.5182 55.9213 29.6611C55.981 30.0825 56.105 30.6907 56.2931 31.4869C56.315 31.5846 56.21 31.6634 55.9781 31.7232C55.7302 31.7757 55.5654 31.7348 55.4823 31.5992C54.8887 30.6294 54.1377 30.1452 53.2277 30.1452C52.1981 30.1452 51.6833 30.4763 51.6833 31.1369C51.6833 31.5059 51.8219 31.7975 52.1004 32.0163C52.3483 32.2044 52.9302 32.4975 53.8475 32.8957C54.81 33.3084 55.4633 33.6817 55.809 34.0113C56.2567 34.4444 56.4827 35.019 56.4827 35.7394Z" fill="white"/>
<path d="M69.5581 37.7693C69.5581 38.0318 69.3817 38.1718 69.0287 38.1864C68.5023 38.1937 67.8154 38.2316 66.9652 38.2987C66.5437 38.3818 66.2433 38.3293 66.064 38.1412C64.8769 36.8637 63.8692 35.5264 63.0423 34.1279C62.9752 34.0083 62.8877 33.947 62.7827 33.947C62.6544 33.947 62.4327 34.0593 62.1177 34.2854C61.7648 34.4808 61.5883 34.7593 61.5883 35.1195C61.5883 35.3747 61.5956 35.7437 61.6102 36.2249C61.6248 36.7062 61.7458 37.0212 61.9704 37.1714C62.1279 37.2764 62.4925 37.3595 63.0642 37.4193C63.4171 37.4645 63.5935 37.5958 63.5935 37.8145C63.5935 37.9881 63.5658 38.0945 63.509 38.1354C63.4521 38.1762 63.3048 38.1864 63.0642 38.1631C62.3131 38.096 61.0429 38.1324 59.2535 38.2754C58.8029 38.3133 58.5579 38.2564 58.5215 38.1062C58.5069 38.0537 58.4996 37.9779 58.4996 37.8802C58.4996 37.6468 58.7285 37.4704 59.1879 37.3508C59.6006 37.2458 59.8077 36.7602 59.8077 35.8968V26.0458C59.8077 25.4289 59.7479 25.0016 59.6269 24.761C59.4621 24.4533 59.1165 24.2127 58.59 24.0391C58.3421 23.956 58.2181 23.8393 58.2181 23.6891C58.2181 23.4718 58.3946 23.3027 58.7475 23.1816C59.3104 22.9935 59.8485 22.7339 60.359 22.4043C60.7717 22.1331 61.0283 21.9989 61.126 21.9989C61.4337 21.9989 61.5883 22.1943 61.5883 22.5852C61.5883 22.5327 61.584 22.9045 61.5767 23.7008C61.5694 24.2491 61.565 24.9856 61.565 25.9102L61.5869 32.967C61.5869 33.1624 61.6394 33.2602 61.7444 33.2602C61.8567 33.2602 62.0302 33.1624 62.2635 32.967C62.8877 32.4785 63.6533 31.8397 64.5633 31.0508C64.7442 30.8627 64.8346 30.7124 64.8346 30.6002C64.8346 30.3974 64.5298 30.2545 63.9217 30.1714C63.6592 30.1408 63.5352 29.9949 63.5498 29.7324C63.5717 29.4699 63.7044 29.3562 63.945 29.3941C64.486 29.4699 65.275 29.5108 66.3119 29.5181C67.0337 29.5254 67.7512 29.5297 68.4644 29.5297C68.6977 29.537 68.8144 29.6756 68.8144 29.9468C68.8144 30.202 68.6306 30.342 68.2617 30.3639C67.6827 30.3858 67.1387 30.5185 66.6269 30.7591C65.9123 31.0829 65.1496 31.6502 64.3387 32.461C64.279 32.5062 64.2483 32.5631 64.2483 32.6302C64.2483 32.7352 64.3767 32.9874 64.6319 33.3856C65.571 34.8133 66.4577 35.8924 67.2919 36.6202C67.8256 37.0781 68.3258 37.3085 68.791 37.3085C69.1367 37.3085 69.351 37.3333 69.4342 37.3814C69.5173 37.4295 69.5581 37.5593 69.5581 37.7693Z" fill="white"/>
</g>
<defs>
<clipPath id="clip0_15_102">
<rect width="70" height="70" rx="10" fill="white"/>
</clipPath>
</defs>
</svg>
