<svg width="70" height="70" viewBox="0 0 70 70" fill="none" xmlns="http://www.w3.org/2000/svg">
<path d="M61.5417 32.2291L37.7708 8.45829C37.0417 7.72913 36.0208 7.29163 35 7.29163C33.9792 7.29163 32.9583 7.72913 32.2292 8.45829L27.125 13.5625L33.1042 19.5416C33.6875 19.25 34.2708 19.1041 35 19.1041C37.4792 19.1041 39.375 21 39.375 23.4791C39.375 24.2083 39.2292 24.7916 38.9375 25.375L44.7708 31.2083C45.3542 30.9166 45.9375 30.7708 46.6667 30.7708C49.1458 30.7708 51.0417 32.6666 51.0417 35.1458C51.0417 37.625 49.1458 39.5208 46.6667 39.5208C44.1875 39.5208 42.2917 37.625 42.2917 35.1458C42.2917 34.4166 42.4375 33.8333 42.7292 33.25L36.8958 27.4166C36.75 27.4166 36.6042 27.5625 36.4583 27.5625V42.7291C38.2083 43.3125 39.375 44.9166 39.375 46.8125C39.375 49.2916 37.4792 51.1875 35 51.1875C32.5208 51.1875 30.625 49.2916 30.625 46.8125C30.625 44.9166 31.7917 43.3125 33.5417 42.7291V27.4166C31.7917 26.8333 30.625 25.2291 30.625 23.3333C30.625 22.6041 30.7708 22.0208 31.0625 21.4375L25.0833 15.4583L8.45833 32.2291C7.72916 32.9583 7.29166 33.9791 7.29166 35C7.29166 36.0208 7.72916 37.0416 8.45833 37.7708L32.2292 61.5416C32.9583 62.2708 33.9792 62.7083 35 62.7083C36.0208 62.7083 37.0417 62.2708 37.7708 61.5416L61.5417 37.7708C62.2708 37.0416 62.7083 36.0208 62.7083 35C62.7083 33.9791 62.2708 32.9583 61.5417 32.2291Z" fill="#F4511E"/>
</svg>
