<svg width="70" height="70" viewBox="0 0 70 70" fill="none" xmlns="http://www.w3.org/2000/svg">
<path d="M35 64.1667C51.1083 64.1667 64.1667 51.1083 64.1667 35C64.1667 18.8917 51.1083 5.83337 35 5.83337C18.8917 5.83337 5.83334 18.8917 5.83334 35C5.83334 51.1083 18.8917 64.1667 35 64.1667Z" fill="#216287"/>
<path d="M35 61.25C49.4975 61.25 61.25 49.4975 61.25 35C61.25 20.5025 49.4975 8.75 35 8.75C20.5025 8.75 8.75 20.5025 8.75 35C8.75 49.4975 20.5025 61.25 35 61.25Z" fill="#E87912"/>
<path d="M43.2979 46.5938C43.2979 52.9375 38.7917 58.2313 32.8125 59.4563L32.0104 59.6021C19.7313 58.1438 10.2083 47.6875 10.2083 35C10.2083 21.3063 21.3063 10.2084 35 10.2084C35.2479 10.2084 35.5104 10.2084 35.7583 10.223C30.6542 12.0167 26.9792 16.873 26.9792 22.6042C26.9792 24.7771 27.5042 26.8334 28.4521 28.6417C29.7063 31.0625 31.8063 32.9292 34.2417 34.1542L36.0208 35.0438C38.4563 36.2688 40.5708 38.1355 41.825 40.5563C42.7583 42.3646 43.2979 44.4209 43.2979 46.5938Z" fill="#216287"/>
<path d="M35 8.75C20.5027 8.75 8.75 20.5027 8.75 35C8.75 47.6452 17.6925 58.1963 29.5969 60.6871L29.6144 60.779L29.8463 60.7367C31.5131 61.0692 33.2354 61.25 35 61.25C49.4973 61.25 61.25 49.4973 61.25 35C61.25 20.5027 49.4973 8.75 35 8.75ZM11.6667 35C11.6667 23.4281 20.144 13.8235 31.2083 12.0035C28.159 14.5746 26.25 18.4129 26.25 22.6042C26.25 24.8194 26.7852 27.0215 27.7988 28.9742C29.0602 31.4067 31.1763 33.4235 33.9194 34.8017L35.6971 35.6956C38.1631 36.9381 40.059 38.7348 41.179 40.8931C42.0977 42.6635 42.5629 44.5798 42.5629 46.5908C42.5629 51.9065 39.1358 56.5906 34.2344 58.2925C21.7248 57.8856 11.6667 47.6073 11.6667 35ZM37.7781 58.1525C41.5683 55.6427 44.0213 51.345 44.0213 46.5923C44.0213 44.3756 43.486 42.175 42.4725 40.2223C41.211 37.7898 39.095 35.7729 36.3519 34.3948L34.5742 33.5008C32.1067 32.2583 30.2123 30.4631 29.0923 28.3033C28.1735 26.5315 27.7083 24.6152 27.7083 22.6042C27.7083 17.9769 30.3056 13.8294 34.2183 11.706C34.4794 11.6973 34.736 11.6667 35 11.6667C47.8654 11.6667 58.3333 22.1346 58.3333 35C58.3333 46.9248 49.3369 56.7729 37.7781 58.1525Z" fill="white"/>
<path d="M56.0846 40.145C54.9529 38.7931 53.1417 37.4777 51.9881 35.5731C51.8263 35.3048 51.9108 34.9795 52.185 34.8337C53.6652 34.0404 53.9263 34.1848 55.4167 33.5416C53.9583 32.0833 52.4461 31.5583 50.0485 30.9545C49.579 30.8568 49.3092 30.4631 49.2304 30.03C49.1021 29.5589 48.8294 28.7612 48.5435 28.1239C46.4713 23.9371 43.8885 18.4625 38.6473 18.0512C38.3017 18.0468 37.9721 17.9068 37.7431 17.6764C37.0825 17.0464 36.1579 16.2662 35.3077 16.1379C35.14 16.1539 35.2246 16.0971 35.0948 16.2166C34.755 16.6148 34.8236 16.6293 35.0569 17.1354C35.3719 17.6735 35.9727 18.2889 36.5633 18.8971C37.1627 19.6714 36.7471 20.8046 37.1408 21.6737C37.3027 22.2906 37.6425 23.0198 38.0202 23.466C38.2025 23.7008 38.2579 23.9983 38.2011 24.2681C37.7811 26.2762 37.485 28.4418 37.8919 30.4529C37.9006 30.6673 38.1106 30.7475 38.2652 30.6702C38.3133 30.6323 38.3119 30.6585 38.4986 30.3304C38.7275 29.82 40.3594 26.6977 40.8333 27.7083C41.5231 29.9512 42.4813 34.3146 44.5113 35.6635C44.5973 35.7 44.5302 35.8414 44.4456 35.7933C42.3252 34.6981 40.6088 31.882 40.1027 29.9833C39.709 30.0168 39.3561 30.3362 39.1577 30.7023C38.8588 31.7508 37.3202 31.8048 37.0446 30.6833C36.9338 30.2487 36.8433 29.8083 36.8011 29.3635C36.6392 27.7448 36.7413 25.3487 37.1088 24.1398C36.0821 23.0314 35.5075 20.8921 35.6431 19.7721C35.0408 19.1625 34.4079 18.5631 33.9369 17.8121C33.0502 16.6833 33.8261 14.7029 35.3471 14.7743C36.6946 14.8866 37.7854 15.8054 38.745 16.6716C39.8081 16.5768 41.914 17.3191 43.0938 18.1168C45.7683 19.8537 47.1756 22.836 48.704 25.5223C49.3004 26.7414 50.3694 28.8035 50.3417 29.7864C53.0629 30.6293 56.1385 31.6487 57.6902 34.2285C57.7179 34.2796 57.6917 34.3452 57.6348 34.3612L53.4056 35.6883L56.2071 40.0633C56.2552 40.1362 56.1385 40.2266 56.0846 40.145Z" fill="white"/>
<path d="M39.4421 19.9617L40.6569 21.6956C40.6569 21.6956 42.0437 19.7312 39.4421 19.9617Z" fill="white"/>
<path d="M14.2363 29.2702C15.3679 30.6221 17.1792 31.9375 18.3327 33.8421C18.4946 34.1105 18.41 34.4357 18.1358 34.5815C16.6556 35.3734 16.396 35.229 14.9056 35.8736C16.364 37.3319 17.8763 37.8569 20.2738 38.4607C20.7433 38.5584 21.0131 38.9521 21.0919 39.3852C21.2202 39.8563 21.4929 40.654 21.7788 41.2913C23.851 45.4782 26.4338 50.9527 31.675 51.364C32.0206 51.3684 32.3502 51.5084 32.5792 51.7388C33.2398 52.3688 34.1644 53.149 35.0146 53.2773C35.1823 53.2613 35.0977 53.3182 35.2275 53.1986C35.5673 52.8005 35.4988 52.7859 35.2654 52.2798C34.9504 51.7417 34.3496 51.1263 33.759 50.5182C33.1596 49.7438 33.5752 48.6107 33.1815 47.7415C33.0196 47.1246 32.6798 46.3955 32.3021 45.9492C32.1198 45.7144 32.0644 45.4169 32.1213 45.1471C32.5413 43.139 32.8373 40.9734 32.4304 38.9623C32.4217 38.748 32.2117 38.6677 32.0571 38.745C32.009 38.783 32.0104 38.7567 31.8238 39.0848C31.5933 39.5923 29.9615 42.7161 29.4875 41.704C28.7977 39.4611 27.8396 35.0977 25.8096 33.7488C25.7235 33.7123 25.7906 33.5709 25.8752 33.619C27.9956 34.7142 29.7121 37.5302 30.2181 39.429C30.6119 39.3955 30.9648 39.0761 31.1631 38.71C31.4621 37.6615 33.0006 37.6075 33.2763 38.729C33.3871 39.1636 33.4775 39.604 33.5198 40.0488C33.6817 41.6675 33.5796 44.0636 33.2121 45.2725C34.2388 46.3809 34.8133 48.5202 34.6777 49.6402C35.28 50.2498 35.9129 50.8492 36.384 51.6002C37.2706 52.729 36.4948 54.7094 34.9738 54.638C33.6263 54.5257 32.5354 53.6069 31.5758 52.7407C30.5127 52.8355 28.4069 52.0932 27.2271 51.2955C24.5525 49.5586 23.1452 46.5763 21.6169 43.89C21.0204 42.6709 19.9515 40.6088 19.9792 39.6259C17.2579 38.783 14.1823 37.7636 12.6306 35.1838C12.6029 35.1327 12.6292 35.0671 12.686 35.0511L16.9152 33.724L14.1138 29.349C14.0656 29.279 14.1823 29.19 14.2363 29.2702Z" fill="white"/>
<path d="M30.8787 49.4536L29.664 47.7196C29.664 47.7196 28.2771 49.6854 30.8787 49.4536Z" fill="white"/>
</svg>
