<svg width="70" height="70" viewBox="0 0 70 70" fill="none" xmlns="http://www.w3.org/2000/svg">
<path d="M64.1404 34.4677C64.241 28.2538 62.841 20.8644 59.9244 12.1946L57.6377 5.39587L54.5315 11.8607C54.3652 12.2063 54.1756 12.5446 53.9773 12.8786C48.8746 8.49775 42.2537 5.83337 35 5.83337C18.8912 5.83337 5.83333 18.8913 5.83333 35C5.83333 51.1088 18.8912 64.1667 35 64.1667C51.1087 64.1667 64.1667 51.1088 64.1667 35C64.1667 34.8207 64.1433 34.6471 64.1404 34.4677Z" fill="#8BC34A"/>
<path d="M57.4365 47.4804C52.8821 53.7542 44.8204 54.091 37.2327 53.9583H27.3438H24.5175C30.975 51.6352 34.8177 51.0825 38.7421 49C46.1329 45.1135 53.4392 36.61 54.9602 27.7638C52.1456 36.2746 43.6158 43.5867 35.8429 46.5602C30.5171 48.5917 20.8979 50.5633 20.8979 50.5633L20.5085 50.3519C13.9606 47.0575 13.7623 32.3954 25.6667 27.6617C30.8788 25.5865 35.8648 26.7269 41.4954 25.3385C47.5067 23.8627 54.46 19.2019 57.2892 13.125C60.4567 22.8477 64.2688 38.0712 57.4365 47.4804ZM22.8492 56.0656C22.4379 56.576 21.8094 56.875 21.1531 56.875C19.9529 56.875 18.9729 55.8877 18.9729 54.6875C18.9729 53.4873 19.9602 52.5 21.1531 52.5C21.6504 52.5 22.1404 52.6721 22.5254 52.99C23.4588 53.7469 23.6046 55.1323 22.8492 56.0656Z" fill="white"/>
</svg>
